<svg aria-hidden="true" style="position: absolute; width: 0; height: 0; overflow: hidden;" version="1.1" xmlns="http://www.w3.org/2000/svg" xmlns:xlink="http://www.w3.org/1999/xlink">
<defs>
<symbol id="icon-leaf" viewBox="0 0 28 28">
<path d="M20 11c0-0.547-0.453-1-1-1-5.531 0-9.094 2.312-12.703 6.297-0.187 0.203-0.297 0.422-0.297 0.703 0 0.547 0.453 1 1 1 0.281 0 0.5-0.109 0.703-0.297 0.766-0.688 1.453-1.437 2.203-2.141 2.828-2.547 5.25-3.563 9.094-3.563 0.547 0 1-0.453 1-1zM28 7.906c0 1-0.109 2.016-0.313 3.016-1 4.859-4.125 8.016-8.469 10.172-2.109 1.062-4.469 1.687-6.844 1.687-1.5 0-3.047-0.25-4.469-0.734-0.75-0.25-2.25-1.234-2.875-1.234-0.781 0-1.719 3.187-3.078 3.187-0.984 0-1.281-0.484-1.703-1.203-0.141-0.266-0.25-0.359-0.25-0.688 0-1.625 3.094-2.891 3.094-3.797 0-0.141-0.406-0.969-0.469-1.281-0.094-0.531-0.141-1.078-0.141-1.625 0-4.969 3.953-8.516 8.391-9.984 3.203-1.062 10.016 0.172 12.187-1.891 0.859-0.797 1.281-1.531 2.594-1.531 1.766 0 2.344 4.578 2.344 5.906z"></path>
</symbol>
<symbol id="icon-tree" viewBox="0 0 20 20">
<path d="M20 10c0-1.361-0.758-2.616-2.031-3.622-0.002-0.001-0.004-0.001-0.005-0.003-0.362-3.572-3.787-6.375-7.964-6.375s-7.602 2.803-7.964 6.375c-0.001 0.002-0.003 0.002-0.005 0.003-1.273 1.006-2.031 2.261-2.031 3.622 0 3.112 3.947 5.669 9 5.97 0 0.338 0 0.683 0 1.030 0 1-1.821 1.911-1.821 1.911-0.099 0.049-0.148 0.173-0.109 0.277 0 0 0.305 0.812 0.93 0.812s1.124-0.5 2.374-0.5 2.439 0.432 2.439 0.432c0.102 0.038 0.251 0.005 0.329-0.073l0.717-0.717c0.078-0.078 0.058-0.173-0.046-0.212 0 0-1.812-0.68-1.812-1.93 0-0.312 0-0.706 0-1.121 4.564-0.555 7.999-2.976 7.999-5.879zM2 10c0-1.019 0.768-1.945 2.022-2.651-0.010-0.116-0.022-0.232-0.022-0.349 0-2.762 2.687-5 6-5s6 2.238 6 5c0 0.117-0.012 0.233-0.021 0.349 1.253 0.706 2.021 1.632 2.021 2.651 0 1.864-2.551 3.424-5.999 3.869 0-0.401 0-0.668 0-0.668 0-0.11 0.065-0.262 0.145-0.337l1.833-1.726c0.080-0.076 0.146-0.227 0.146-0.337v-0.851c0-0.11-0.078-0.155-0.172-0.099l-1.779 1.047c-0.096 0.056-0.173 0.012-0.173-0.099v-3.599c0-0.11-0.085-0.172-0.19-0.137l-2.621 0.874c-0.104 0.035-0.189 0.153-0.189 0.263v2.6c0 0.11-0.079 0.158-0.177 0.107l-2.022-1.064c-0.097-0.051-0.24-0.030-0.318 0.048l-0.342 0.342c-0.078 0.078-0.073 0.201 0.009 0.273l2.7 2.361c0.083 0.073 0.15 0.222 0.15 0.332 0 0 0 0.298 0 0.765-3.945-0.245-7.001-1.924-7.001-3.964z"></path>
</symbol>
<symbol id="icon-leaf1" viewBox="0 0 20 20">
<path d="M19.025 3.587c-4.356 2.556-4.044 7.806-7.096 10.175-2.297 1.783-5.538 0.88-7.412 0.113 0 0-1.27 1.603-2.181 3.74-0.305 0.717-1.644-0.073-1.409-0.68 2.978-7.685 13.11-11.519 13.11-11.519s-7.149-0.303-11.927 5.94c-0.128-1.426-0.34-5.284 3.36-7.65 5.016-3.211 14.572-0.715 13.555-0.119z"></path>
</symbol>
<symbol id="icon-treehouse" viewBox="0 0 32 32">
<path fill="#5fcf80" style="fill: var(--color1, #5fcf80)" d="M27.383 5.491c-1.075-0.604-2.789 0.371-3.828 2.18l-1.888 3.283c-0.287 0.548-0.455 1.197-0.455 1.886 0 0.88 0.275 1.697 0.744 2.367l-0.009-0.013 0.055 0.083c0.871 1.253 2.047 2.411 2.431 2.824 0.359 0.383 0.58 0.901 0.58 1.469 0 0.979-0.655 1.806-1.55 2.066l-0.015 0.004c-0.174 0.051-0.374 0.080-0.58 0.080-1.18 0-2.137-0.957-2.137-2.137 0-0.096 0.006-0.19 0.019-0.283l-0.001 0.011c0.060-0.467-0.089-1.236-0.765-1.985-0.675-0.751-2.053 0.667-2.499 2.147l-0.021 0.081c-0.445 1.459-0.728 2.733-0.643 2.857 0.049 0.080 0.096 0.16 0.14 0.243 0.178 0.328 0.283 0.719 0.283 1.134 0 1.333-1.081 2.414-2.414 2.414-0.918 0-1.716-0.512-2.124-1.267l-0.006-0.013c-0.179-0.328-0.284-0.719-0.284-1.134 0-0.917 0.513-1.714 1.267-2.121l0.013-0.006 0.161-0.081c0.087-0.040 0.347-0.648 0.564-1.376l0.401-1.316c0.025-0.063 0.044-0.143 0.060-0.224l1.196-4.253-1.276 2.613c-0.149-0.484-0.4-0.507-0.945-0.121-0.324 0.244-0.871 0.708-1.133 0.892-0.487 0.364-0.913 1.051-1.135 1.479-0.128 0.27-0.314 0.494-0.542 0.663l-0.005 0.003c-0.912 0.752-2.249 0.608-2.979-0.303-0.291-0.36-0.466-0.823-0.466-1.327 0-1.016 0.714-1.865 1.668-2.073l0.014-0.003c0.545-0.123 2.369-1.236 3.461-2.027 0.203-0.141 0.365-0.263 0.507-0.405l2.937-2.227-2.552 1.376c0 0-0.261-0.021-0.568 0.023-0.931 0.1-1.904 0.243-2.085 0.467-0.104 0.146-0.233 0.267-0.381 0.359l-0.006 0.003c-0.849 0.608-2.025 0.427-2.652-0.423-0.219-0.307-0.349-0.69-0.349-1.103 0-0.638 0.312-1.204 0.792-1.552l0.006-0.004c0.345-0.244 0.769-0.365 1.153-0.365 0.691 0.021 2.493 0.387 3.991 0.123l0.384-0.060c1.52-0.261 3.301-1.581 4.032-2.916l1.579-2.756c0.871-1.519 0.811-3.179-0.14-3.727l-1.764-1.013c-0.871-0.484-2.287-0.484-3.139 0l-11.811 6.621c-0.889 0.465-1.599 1.68-1.599 2.673v12.992c0 0.992 0.709 2.208 1.571 2.693l11.8 6.644c0.869 0.487 2.288 0.487 3.139 0l11.768-6.644c0.871-0.491 1.579-1.701 1.579-2.693v-13.013c0-0.992-0.708-2.204-1.559-2.693l-1.947-1.097z"></path>
</symbol>
<symbol id="icon-overleaf" viewBox="0 0 32 32">
<path fill="#47a141" style="fill: var(--color2, #47a141)" d="M9.816 8.039c-4.423 2.67-7.385 7.372-7.591 12.779l-0.001 0.029c0.005 6.158 4.998 11.149 11.157 11.149 6.162 0 11.157-4.995 11.157-11.157 0-4.73-2.944-8.773-7.099-10.396l-0.076-0.026c-1.142-0.474-2.467-0.75-3.858-0.75-0.036 0-0.072 0-0.108 0.001l0.005-0c-2.401 1.638-4.31 3.829-5.57 6.396l-0.043 0.097c1.353-1.606 3.366-2.62 5.615-2.62 4.047 0 7.328 3.281 7.328 7.328s-3.281 7.328-7.328 7.328c-0.009 0-0.017 0-0.026-0h0.001c-0.004 0-0.009 0-0.013 0-2.228 0-4.224-0.994-5.568-2.563l-0.008-0.010c-1.396-1.551-2.249-3.614-2.249-5.877 0-0.544 0.049-1.077 0.144-1.594l-0.008 0.054c1.431-8.56 11.685-13.489 19.277-15.404-3.923 1.901-7.239 3.842-10.39 6.006l0.268-0.174c9.177 3.543 10.652-4.181 14.943-7.637-4.269-1.672-19.937-2.288-19.96 7.043z"></path>
</symbol>
<symbol id="icon-home3" viewBox="0 0 32 32">
<path d="M32 19l-6-6v-9h-4v5l-6-6-16 16v1h4v10h10v-6h4v6h10v-10h4z"></path>
</symbol>
<symbol id="icon-spades" viewBox="0 0 32 32">
<path d="M25.549 10.88c-6.049-4.496-8.133-8.094-9.549-10.88v0c-0 0-0-0-0-0v0c-1.415 2.785-3.5 6.384-9.549 10.88-10.314 7.665-0.606 18.365 7.93 12.476-0.556 3.654-2.454 6.318-4.381 7.465v1.179h12.001v-1.179c-1.928-1.147-3.825-3.811-4.382-7.465 8.535 5.889 18.244-4.811 7.93-12.476z"></path>
</symbol>
<symbol id="icon-clubs" viewBox="0 0 32 32">
<path d="M24.588 12.274c-1.845 0-3.503 0.769-4.683 2.022-0.5 0.531-1.368 1.16-2.306 1.713 0.441-1.683 1.834-3.803 2.801-4.733 1.239-1.193 2-2.87 2-4.734 0-3.59-2.859-6.503-6.4-6.541-3.541 0.038-6.4 2.951-6.4 6.541 0 1.865 0.761 3.542 2 4.734 0.967 0.93 2.36 3.050 2.801 4.733-0.939-0.553-1.806-1.182-2.306-1.713-1.18-1.253-2.838-2.022-4.683-2.022-3.575 0-6.471 2.927-6.471 6.541s2.897 6.542 6.471 6.542c1.845 0 3.503-0.792 4.683-2.045 0.525-0.558 1.451-1.254 2.447-1.832-0.094 4.615-2.298 8.005-4.541 9.341v1.179h12v-1.179c-2.244-1.335-4.448-4.726-4.541-9.341 0.995 0.578 1.922 1.274 2.447 1.832 1.18 1.253 2.838 2.045 4.683 2.045 3.575 0 6.471-2.928 6.471-6.542s-2.897-6.541-6.471-6.541z"></path>
</symbol>
<symbol id="icon-users" viewBox="0 0 36 32">
<path d="M24 24.082v-1.649c2.203-1.241 4-4.337 4-7.432 0-4.971 0-9-6-9s-6 4.029-6 9c0 3.096 1.797 6.191 4 7.432v1.649c-6.784 0.555-12 3.888-12 7.918h28c0-4.030-5.216-7.364-12-7.918z"></path>
<path d="M10.225 24.854c1.728-1.13 3.877-1.989 6.243-2.513-0.47-0.556-0.897-1.176-1.265-1.844-0.95-1.726-1.453-3.627-1.453-5.497 0-2.689 0-5.228 0.956-7.305 0.928-2.016 2.598-3.265 4.976-3.734-0.529-2.39-1.936-3.961-5.682-3.961-6 0-6 4.029-6 9 0 3.096 1.797 6.191 4 7.432v1.649c-6.784 0.555-12 3.888-12 7.918h8.719c0.454-0.403 0.956-0.787 1.506-1.146z"></path>
</symbol>
<symbol id="icon-leaf2" viewBox="0 0 32 32">
<path d="M31.604 4.203c-3.461-2.623-8.787-4.189-14.247-4.189-6.754 0-12.257 2.358-15.099 6.469-1.335 1.931-2.073 4.217-2.194 6.796-0.108 2.296 0.278 4.835 1.146 7.567 2.965-8.887 11.244-15.847 20.79-15.847 0 0-8.932 2.351-14.548 9.631-0.003 0.004-0.078 0.097-0.207 0.272-1.128 1.509-2.111 3.224-2.846 5.166-1.246 2.963-2.4 7.030-2.4 11.931h4c0 0-0.607-3.819 0.449-8.212 1.747 0.236 3.308 0.353 4.714 0.353 3.677 0 6.293-0.796 8.231-2.504 1.736-1.531 2.694-3.587 3.707-5.764 1.548-3.325 3.302-7.094 8.395-10.005 0.292-0.167 0.48-0.468 0.502-0.804s-0.126-0.659-0.394-0.862z"></path>
</symbol>
<symbol id="icon-tree1" viewBox="0 0 32 32">
<path d="M30.5 24h-0.5v-6.5c0-1.93-1.57-3.5-3.5-3.5h-8.5v-4h0.5c0.825 0 1.5-0.675 1.5-1.5v-5c0-0.825-0.675-1.5-1.5-1.5h-5c-0.825 0-1.5 0.675-1.5 1.5v5c0 0.825 0.675 1.5 1.5 1.5h0.5v4h-8.5c-1.93 0-3.5 1.57-3.5 3.5v6.5h-0.5c-0.825 0-1.5 0.675-1.5 1.5v5c0 0.825 0.675 1.5 1.5 1.5h5c0.825 0 1.5-0.675 1.5-1.5v-5c0-0.825-0.675-1.5-1.5-1.5h-0.5v-6h8v6h-0.5c-0.825 0-1.5 0.675-1.5 1.5v5c0 0.825 0.675 1.5 1.5 1.5h5c0.825 0 1.5-0.675 1.5-1.5v-5c0-0.825-0.675-1.5-1.5-1.5h-0.5v-6h8v6h-0.5c-0.825 0-1.5 0.675-1.5 1.5v5c0 0.825 0.675 1.5 1.5 1.5h5c0.825 0 1.5-0.675 1.5-1.5v-5c0-0.825-0.675-1.5-1.5-1.5zM6 30h-4v-4h4v4zM18 30h-4v-4h4v4zM14 8v-4h4v4h-4zM30 30h-4v-4h4v4z"></path>
</symbol>
<symbol id="icon-youtube" viewBox="0 0 32 32">
<path d="M31.681 9.6c0 0-0.313-2.206-1.275-3.175-1.219-1.275-2.581-1.281-3.206-1.356-4.475-0.325-11.194-0.325-11.194-0.325h-0.012c0 0-6.719 0-11.194 0.325-0.625 0.075-1.987 0.081-3.206 1.356-0.963 0.969-1.269 3.175-1.269 3.175s-0.319 2.588-0.319 5.181v2.425c0 2.587 0.319 5.181 0.319 5.181s0.313 2.206 1.269 3.175c1.219 1.275 2.819 1.231 3.531 1.369 2.563 0.244 10.881 0.319 10.881 0.319s6.725-0.012 11.2-0.331c0.625-0.075 1.988-0.081 3.206-1.356 0.962-0.969 1.275-3.175 1.275-3.175s0.319-2.587 0.319-5.181v-2.425c-0.006-2.588-0.325-5.181-0.325-5.181zM12.694 20.15v-8.994l8.644 4.513-8.644 4.481z"></path>
</symbol>
</defs>
</svg>
